<?xml version="1.0" encoding="utf-8"?>
<!-- Generator: Adobe Illustrator 18.0.0, SVG Export Plug-In . SVG Version: 6.00 Build 0)  -->
<!DOCTYPE svg PUBLIC "-//W3C//DTD SVG 1.1//EN" "http://www.w3.org/Graphics/SVG/1.1/DTD/svg11.dtd">
<svg version="1.1" id="Layer_1" xmlns="http://www.w3.org/2000/svg" xmlns:xlink="http://www.w3.org/1999/xlink" x="0px" y="0px"
	 viewBox="0 0 400 129.9" enable-background="new 0 0 400 129.9" xml:space="preserve">
<g>
	<path fill="#010101" d="M400,119.9c0,5.5-4.2,10-9.3,10H9.3c-5.1,0-9.3-4.5-9.3-10V10C0,4.5,4.2,0,9.3,0h381.5
		c5.1,0,9.3,4.5,9.3,10V119.9z"/>
	<g>
		<path fill="#BC9941" d="M336.6,86.1c-2.5,1.6-5,4-7.6,4.7c-2.6,0.7-4.9,0.9-7,0.6c-2.1-0.3-3.8-1.2-5.2-2.7
			c-0.9-1-1.5-3.2-1.8-5.5c-0.1-1.1-0.2-2.1-0.2-3.1c4-3.3,8-7,12-10.9c4-3.9,7.8-7.9,11.3-12c3.5-4,6.5-8,9.1-11.9
			c2.6-3.9,4.4-7.5,5.6-10.8c1.1-3.3,1.4-6.1,0.7-8.6c-0.7-2.4-2.5-4.2-5.6-5.3c-3.3-1.1-6.9-0.7-10.9,1.4c-4,2-7.9,5.1-11.8,9.1
			c-3.9,4-7.6,8.8-11.2,14.2c-3.5,5.4-6.6,11-9,16.6c-2.5,5.7-4.2,11.1-5.2,16.2c-0.4,1.8-0.6,3.5-0.7,5.1c0,0.1,0,0.3,0,0.4
			c-5.6,4.1-11.1,8.4-13.1,7c-2.3-1.6-2.1-4.7-1.2-7.4c0.4-1.2,0.9-2.5,1.4-3.9c0.6-1.8,1.9-4.5,3-6.7c1.1-2.3,6.3-11,7.7-13.4
			c1.4-2.4,2.8-4.5,4.1-6.4c0.6-0.7,0.4-1.3-0.7-1.7c-1.1-0.5-2.4-0.7-4.1-0.7c-1.6,0-3.3,0.2-5.1,0.6c-1.7,0.4-3,1-3.9,1.8
			c-0.4,0.3-1.7,2.5-2.7,3.9c0,0,0.2-1.8-1.4-4.1c-0.9-1.3-3.1-2.5-5.7-3.1c-2.6-0.6-5.5-0.5-8.5,0.2c-3,0.7-6.2,2-9.4,3.9
			c-3.2,1.9-6.4,4.4-9.3,7.4c-3,3-5.5,6.3-7.5,9.7c-1.4,2.3-2.4,4.6-3.3,6.8c-1,1.8-2.1,3.7-3.4,5.6c-3.6,5-9,9.7-19,10.4
			c-3,0.2-5.6-0.6-7.8-1.7c-2.2-1.1-3.5-2.9-4.3-4.9c5.5,0.1,10.5-0.8,15.1-2.7c0.8-0.3,1.5-0.7,2.2-1.1c3.5-1.9,6.4-4.6,9-7
			c3-2.9,5.2-6,6.4-9.3c1.2-3.3,1.3-6.4,0.3-9.1c-0.9-2.2-2.4-4-4.6-5.2c-2.1-1.3-4.6-2-7.3-2.3c-2.8-0.3-5.8,0-9,0.6
			c-3.2,0.7-6.4,1.9-9.5,3.6c-3.1,1.8-6,4-8.7,6.8c-2.7,2.8-5,6.1-6.7,9.9c-1.5,3.3-2.4,6.3-2.8,9.3c-0.4,0.8-0.8,1.7-1.4,2.7
			c-3.2,5.3-9.5,12.5-13.2,11.2c-3.5-1.3,0.2-10.9,0.3-11.2c1.7-3.9,11.4-18.2,12.5-19.9c1.1-1.9,2.7-3.2,3.9-4.8
			c3.1-4.4-2.1-7.3-5.6-6.3c-7.7,2.5-16.8,5.3-23.2,1.6c-0.5-13.1-18.6-5.6-9.7,4c0.1,0.1,0,0.2,0,0.4c0,2.5-5.9,16.6-11.4,24.2
			c-0.3,0.3-0.5,0.6-0.8,0.9c-4.3,4.5-10.6,9.2-19.5,10.4c-3,0.4-5.6-0.6-7.8-1.7c-2.2-1.1-3.5-2.9-4.3-4.9
			c5.5,0.1,10.5-0.8,15.1-2.7c0.8-0.3,1.5-0.7,2.2-1.1c3.5-1.9,6.4-4.6,9-7c3-2.9,5.2-6,6.4-9.3c1.2-3.3,1.3-6.4,0.3-9.1
			c-0.9-2.2-2.4-4-4.6-5.2c-2.1-1.3-4.6-2-7.3-2.3c-2.8-0.3-5.8,0-9,0.6c-3.2,0.7-6.4,1.9-9.5,3.6c-3.1,1.8-6,4-8.7,6.8
			c-2.7,2.8-5,6.1-6.7,9.9c-1.9,4.2-2.9,8-3,11.6c0,0.1,0,0.2,0,0.3c0,0.5,0,0.9,0,1.4c-3.4,2.7-6.4,6-15.1,7.8
			c-4.3,0.9-8.1,1.1-11.4,0.4c-3.2-0.7-5.7-2.2-7.3-4.6c-0.9-1.3-1.5-3.4-1.6-5.6c-0.1-1.9,0.1-5.2,0.6-6.9c0.9-2.8,1.7-5.4,3.6-7.7
			c1.9-2.3,3.9-4.1,5.9-5.5c2.1-1.4,4-2.2,5.9-2.7c1.9-0.4,4-0.2,4.9,0.7c0.9,0.8,1,2.1,0.7,3.1c-0.1,0.5-0.4,1-1.1,1.6
			c-1,1-2.4,2-3.2,2.8c-0.9,1-1.1,2-0.6,3c0.5,1,1.5,1.7,2.9,2.3c1.4,0.6,3,0.8,4.9,0.6c1.9-0.2,4.4-0.8,6.3-2c1.8-1.2,3.1-4,3.7-6
			c0.6-2,0.7-3.9,0.5-5.9c-0.2-2-0.8-3.8-1.9-5.5c-1.8-2.9-5.2-4.9-9.2-5.8c-3.9-1-8.2-0.9-12.7,0.2c-4.6,1.1-8.4,3.4-12.8,6.8
			c-4.4,3.4-7.9,8-10.6,13.7c-1.9,4.2-2.9,9.3-3,12.9c0,0.1,0,0.2,0,0.3c-0.1,3.4,0.5,6.5,1.8,9.2c1.3,2.8,3.4,5.1,6.2,6.9
			c2.8,1.8,6.2,2.8,10.3,3.5c8,1.3,23.7,0.1,33.3-10.9l0.1,0.5c0.1,0.2,0.2,0.5,0.3,0.7c1.3,2.8,3.4,5.1,6.3,6.8
			c2.8,1.8,6.3,2.9,10.3,3.4c3.9,0.5,8.2,0,11.8-0.4c11.3-1.2,19.9-8.4,21.8-10.3c0.4-0.4,0.8-0.9,1.2-1.4c1.4-1.5,2.9-3.3,4.4-5.4
			c0.4-0.5,0.9-1.2,1.4-2.1c2.8-4.7,7-13.5,9.1-21.2c1.3,1.3,9.9,2,11.8,1.6c0,0-9.9,18.1-10.5,19.5c-1.9,4.3-4.5,11.9-1,15.5
			c4.8,5.1,12.1,4,14.5,3.2c4.5-1.4,11.2-8.5,14-12.3c0.3,0.9,0.6,1.9,1,2.7c1.3,2.8,3.4,5.1,6.3,6.8c2.8,1.8,6.3,2.9,10.3,3.4
			c3.9,0.5,7.5,0,11-0.7c10.8-2.2,17.2-8.2,19.5-10.4c0.4,2.2,1.3,4.7,2.5,6.3c1.4,1.7,3.2,3.5,5.4,4.2c2.2,0.6,4.5,0.8,7.1,0.5
			c2.6-0.3,5.3-1.1,8.1-2.4c2.8-1.3,6.8-5.5,9.6-7.6c0.2,2,1.1,7.9,4.4,9.3c8.3,3.6,16.6-4.9,18.5-6.2c0.8-0.6,3.5-3.3,6.4-5.5
			c0.1,0.4,0.2,0.8,0.3,1.1c1.1,3.5,3.1,6.3,6,8.3c2.9,2,6.1,3,9.6,3c4.2,0,8.1-1.1,11.7-3.3c3.6-2.2,6.4-4.5,8.5-6.8
			c2.1-2.4,3.3-4.3,3.6-5.9C339.7,85.1,338.6,84.8,336.6,86.1z M319.9,62.3c2.8-6.2,5.6-11.4,8.3-15.7c2.8-4.3,5.4-7.8,7.8-10.5
			c2.4-2.7,4.5-4.6,6.3-5.6c1.8-1.1,3.1-1.4,3.8-1c0.9,0.5,0.6,2.3-0.8,5.2c-1.5,3-3.8,6.6-6.8,10.7c-3,4.2-6.5,8.5-10.4,13.1
			c-3.9,4.6-7.8,8.8-11.6,12.5C317.3,68.4,318.4,65.4,319.9,62.3z M131,62.4c7,7-10.2,19.9-22.4,18.4
			C108.6,67.6,126.1,57.5,131,62.4z M227,62.4c7,7-10.2,19.9-22.4,18.4C204.6,67.6,222.1,57.5,227,62.4z M278,69.1
			c-1.3,2.9-2.7,6.3-5.2,10.4c-0.8,1.2-1.8,2.6-2.9,3.9c-4.9,5.6-13.3,11.5-17.1,5.3c-0.6-1-1-2.7-0.9-4.6c0-1.1,0.1-2.3,0.5-3.5
			c1.3-4.3,4-8.1,6.7-11.3c1.6-1.9,5.7-5.3,7.4-6.5c1.7-1.2,3.8-2.5,5.4-3c1.5-0.5,2.9-0.7,4-0.5c1.1,0.2,2,0.6,2.6,1.3
			C279.5,61.9,279.3,66.2,278,69.1z"/>
		<ellipse fill="#BC9941" cx="350.2" cy="94.5" rx="7.1" ry="7"/>
	</g>
</g>
</svg>
