<?xml version="1.0" encoding="utf-8"?>
<!-- Generator: Adobe Illustrator 18.0.0, SVG Export Plug-In . SVG Version: 6.00 Build 0)  -->
<!DOCTYPE svg PUBLIC "-//W3C//DTD SVG 1.1//EN" "http://www.w3.org/Graphics/SVG/1.1/DTD/svg11.dtd">
<svg version="1.1" id="Layer_1" xmlns="http://www.w3.org/2000/svg" xmlns:xlink="http://www.w3.org/1999/xlink" x="0px" y="0px"
	 viewBox="213.4 775.3 1573.1 414" enable-background="new 213.4 775.3 1573.1 414" xml:space="preserve">
<g>
	<g>
		<path fill="#212121" d="M1683,1105.8c-12.5,8-25,20-38,23.5s-24.5,4.5-35,3c-10.5-1.5-19-6-26-13.5c-4.5-5-7.5-16-9-27.5
			c-0.5-5.5-1-10.5-1-15.5c20-16.5,40-35,60-54.5c20-19.5,39-39.5,56.5-60c17.5-20,32.5-40,45.5-59.5s22-37.5,28-54
			c5.5-16.5,7-30.5,3.5-43c-3.5-12-12.5-21-28-26.5c-16.5-5.5-34.5-3.5-54.5,7c-20,10-39.5,25.5-59,45.5c-19.5,20-38,44-56,71
			c-17.5,27-33,55-45,83c-12.5,28.5-21,55.5-26,81c-2,9-3,17.5-3.5,25.5c0,0.5,0,1.5,0,2c-28,20.5-55.5,42-65.5,35
			c-11.5-8-10.5-23.5-6-37c2-6,4.5-12.5,7-19.5c3-9,9.5-22.5,15-33.5c5.5-11.5,31.5-55,38.5-67c7-12,14-22.5,20.5-32
			c3-3.5,2-6.5-3.5-8.5c-5.5-2.5-12-3.5-20.5-3.5c-8,0-16.5,1-25.5,3c-8.5,2-15,5-19.5,9c-2,1.5-8.5,12.5-13.5,19.5c0,0,1-9-7-20.5
			c-4.5-6.5-15.5-12.5-28.5-15.5s-27.5-2.5-42.5,1s-31,10-47,19.5s-32,22-46.5,37c-15,15-27.5,31.5-37.5,48.5c-7,11.5-12,23-16.5,34
			c-5,9-10.5,18.5-17,28c-18,25-45,48.5-95,52c-15,1-28-3-39-8.5s-17.5-14.5-21.5-24.5c27.5,0.5,52.5-4,75.5-13.5
			c4-1.5,7.5-3.5,11-5.5c17.5-9.5,32-23,45-35c15-14.5,26-30,32-46.5c6-16.5,6.5-32,1.5-45.5c-4.5-11-12-20-23-26
			c-10.5-6.5-23-10-36.5-11.5c-14-1.5-29,0-45,3c-16,3.5-32,9.5-47.5,18c-15.5,9-30,20-43.5,34s-25,30.5-33.5,49.5
			c-7.5,16.5-12,31.5-14,46.5c-2,4-4,8.5-7,13.5c-16,26.5-47.5,62.5-66,56c-17.5-6.5,1-54.5,1.5-56c8.5-19.5,57-91,62.5-99.5
			c5.5-9.5,13.5-16,19.5-24c15.5-22-10.5-36.5-28-31.5c-38.5,12.5-84,26.5-116,8c-2.5-65.5-93-28-48.5,20c0.5,0.5,0,1,0,2
			c0,12.5-29.5,83-57,121c-1.5,1.5-2.5,3-4,4.5c-21.5,22.5-53,46-97.5,52c-15,2-28-3-39-8.5c-11-5.5-17.5-14.5-21.5-24.5
			c27.5,0.5,52.5-4,75.5-13.5c4-1.5,7.5-3.5,11-5.5c17.5-9.5,32-23,45-35c15-14.5,26-30,32-46.5c6-16.5,6.5-32,1.5-45.5
			c-4.5-11-12-20-23-26c-10.5-6.5-23-10-36.5-11.5c-14-1.5-29,0-45,3c-16,3.5-32,9.5-47.5,18c-15.5,9-30,20-43.5,34
			c-13.5,14-25,30.5-33.5,49.5c-9.5,21-14.5,40-15,58c0,0.5,0,1,0,1.5c0,2.5,0,4.5,0,7c-17,13.5-32,30-75.5,39
			c-21.5,4.5-40.5,5.5-57,2c-16-3.5-28.5-11-36.5-23c-4.5-6.5-7.5-17-8-28c-0.5-9.5,0.5-26,3-34.5c4.5-14,8.5-27,18-38.5
			s19.5-20.5,29.5-27.5c10.5-7,20-11,29.5-13.5c9.5-2,20-1,24.5,3.5c4.5,4,5,10.5,3.5,15.5c-0.5,2.5-2,5-5.5,8c-5,5-12,10-16,14
			c-4.5,5-5.5,10-3,15s7.5,8.5,14.5,11.5c7,3,15,4,24.5,3s22-4,31.5-10c9-6,15.5-20,18.5-30s3.5-19.5,2.5-29.5c-1-10-4-19-9.5-27.5
			c-9-14.5-26-24.5-46-29c-19.5-5-41-4.5-63.5,1c-23,5.5-42,17-64,34c-22,17-39.5,40-53,68.5c-9.5,21-14.5,46.5-15,64.5
			c0,0.5,0,1,0,1.5c-0.5,17,2.5,32.5,9,46c6.5,14,17,25.5,31,34.5c14,9,31,14,51.5,17.5c40,6.5,118.5,0.5,166.5-54.5l0.5,2.5
			c0.5,1,1,2.5,1.5,3.5c6.5,14,17,25.5,31.5,34c14,9,31.5,14.5,51.5,17c19.5,2.5,41,0,59-2c56.5-6,99.5-42,109-51.5c2-2,4-4.5,6-7
			c7-7.5,14.5-16.5,22-27c2-2.5,4.5-6,7-10.5c14-23.5,35-67.5,45.5-106c6.5,6.5,49.5,10,59,8c0,0-49.5,90.5-52.5,97.5
			c-9.5,21.5-22.5,59.5-5,77.5c24,25.5,60.5,20,72.5,16c22.5-7,56-42.5,70-61.5c1.5,4.5,3,9.5,5,13.5c6.5,14,17,25.5,31.5,34
			c14,9,31.5,14.5,51.5,17c19.5,2.5,37.5,0,55-3.5c54-11,86-41,97.5-52c2,11,6.5,23.5,12.5,31.5c7,8.5,16,17.5,27,21
			c11,3,22.5,4,35.5,2.5c13-1.5,26.5-5.5,40.5-12c14-6.5,34-27.5,48-38c1,10,5.5,39.5,22,46.5c41.5,18,83-24.5,92.5-31
			c4-3,17.5-16.5,32-27.5c0.5,2,1,4,1.5,5.5c5.5,17.5,15.5,31.5,30,41.5c14.5,10,30.5,15,48,15c21,0,40.5-5.5,58.5-16.5
			c18-11,32-22.5,42.5-34c10.5-12,16.5-21.5,18-29.5C1698.5,1100.8,1693,1099.2,1683,1105.8z M1599.5,986.8c14-31,28-57,41.5-78.5
			c14-21.5,27-39,39-52.5c12-13.5,22.5-23,31.5-28c9-5.5,15.5-7,19-5c4.5,2.5,3,11.5-4,26c-7.5,15-19,33-34,53.5
			c-15,21-32.5,42.5-52,65.5c-19.5,23-39,44-58,62.5C1586.5,1017.2,1592,1002.2,1599.5,986.8z M655,987.2c35,35-51,99.5-112,92
			C543,1013.2,630.5,962.8,655,987.2z M1135,987.2c35,35-51,99.5-112,92C1023,1013.2,1110.5,962.8,1135,987.2z M1390,1020.8
			c-6.5,14.5-13.5,31.5-26,52c-4,6-9,13-14.5,19.5c-24.5,28-66.5,57.5-85.5,26.5c-3-5-5-13.5-4.5-23c0-5.5,0.5-11.5,2.5-17.5
			c6.5-21.5,20-40.5,33.5-56.5c8-9.5,28.5-26.5,37-32.5c8.5-6,19-12.5,27-15c7.5-2.5,14.5-3.5,20-2.5c5.5,1,10,3,13,6.5
			C1397.5,984.8,1396.5,1006.2,1390,1020.8z"/>
		<ellipse fill="#212121" cx="1751" cy="1147.8" rx="35.5" ry="35"/>
	</g>
</g>
</svg>
